<?xml version="1.0" encoding="UTF-8"?>
<svg version="1.1" xmlns="http://www.w3.org/2000/svg" width="256" height="256">
<path d="M0 0 C0.81923761 -0.00782324 1.63847523 -0.01564648 2.48253822 -0.02370679 C3.83208375 -0.01366855 3.83208375 -0.01366855 5.20889282 -0.00342751 C6.64288957 -0.01044746 6.64288957 -0.01044746 8.10585594 -0.01760924 C11.32344632 -0.02961758 14.54061536 -0.02007914 17.75820923 -0.01066017 C20.05917612 -0.01472327 22.36014107 -0.02006367 24.66110229 -0.02659035 C30.9213054 -0.04030079 37.18136068 -0.03494988 43.44156647 -0.02545309 C49.98250233 -0.0178758 56.52342524 -0.02489672 63.06436157 -0.02961159 C74.75458987 -0.03602562 86.44475579 -0.0260821 98.13497329 -0.01083358 C108.73923641 0.00257011 119.34340101 0.00024217 129.94766235 -0.01358986 C142.25539475 -0.02963629 154.56306431 -0.03562479 166.87080574 -0.02675307 C173.3883717 -0.02206772 179.90586976 -0.02147533 186.4234314 -0.03136253 C192.54982025 -0.04000657 198.67602244 -0.0340572 204.80239105 -0.01667976 C207.05548543 -0.0127012 209.30859542 -0.01387222 211.56168365 -0.02046776 C214.62822059 -0.02861923 217.69415265 -0.01843918 220.76065063 -0.00342751 C222.11019616 -0.01346575 222.11019616 -0.01346575 223.48700523 -0.02370679 C224.71586165 -0.01197193 224.71586165 -0.01197193 225.96954346 0 C227.03165008 0.00073059 227.03165008 0.00073059 228.11521339 0.00147593 C230.56965642 0.49516854 231.46440837 1.42271842 232.98477173 3.37752342 C233.37295532 5.94954491 233.37295532 5.94954491 233.38320923 8.99861717 C233.38707642 10.09883202 233.3909436 11.19904686 233.39492798 12.33260155 C233.37752563 14.05640038 233.37752563 14.05640038 233.35977173 15.81502342 C233.37137329 16.96035545 233.38297485 18.10568748 233.39492798 19.28572655 C233.39106079 20.38723045 233.3871936 21.48873436 233.38320923 22.62361717 C233.37982544 23.63093895 233.37644165 24.63826073 233.37295532 25.67610741 C232.91186189 28.88491168 232.2616172 30.08521621 229.98477173 32.37752342 C227.30821228 32.85854149 227.30821228 32.85854149 224.04458618 32.83162498 C222.21302727 32.8311718 222.21302727 32.8311718 220.34446716 32.83070946 C219.02565048 32.81006432 217.7068338 32.78941917 216.34805298 32.76814842 C214.98471404 32.76068668 213.62136437 32.75499343 212.25801086 32.75099754 C208.67220369 32.73573552 205.08704612 32.69645015 201.50149536 32.65218163 C197.84171334 32.61124039 194.18182619 32.59298907 190.5218811 32.57283592 C183.34254871 32.5299553 176.16375129 32.4616985 168.98477173 32.37752342 C168.9884589 33.09535877 168.99214607 33.81319412 168.99594498 34.55278206 C169.08424899 52.01230717 169.15045837 69.47177563 169.19202042 86.93147469 C169.21265331 95.37483548 169.24078768 103.8180473 169.28652954 112.26131248 C169.32637519 119.6197279 169.35219925 126.97803543 169.36112571 134.33655572 C169.36634436 138.23356431 169.37862479 142.13026425 169.40769196 146.027174 C169.43482544 149.69452793 169.44322109 153.36144583 169.43720245 157.02889061 C169.43882903 159.01773702 169.46036267 161.00653584 169.48245239 162.99526024 C169.47695374 164.17874046 169.47145508 165.36222069 169.46578979 166.58156395 C169.46947697 167.61028492 169.47316414 168.63900589 169.47696304 169.69890022 C168.85475111 173.08512679 167.64837111 174.26652135 164.98477173 176.37752342 C162.83334351 176.85854149 162.83334351 176.85854149 160.49160767 176.83162498 C159.6109967 176.83132286 158.73038574 176.83102074 157.8230896 176.83070946 C156.41038788 176.79974174 156.41038788 176.79974174 154.96914673 176.76814842 C153.99818054 176.76248863 153.02721436 176.75682884 152.02682495 176.75099754 C148.92897003 176.72862654 145.8322764 176.67842815 142.73477173 176.62752342 C140.63322595 176.60745939 138.53166201 176.58920845 136.43008423 176.57283592 C131.28120003 176.52875923 126.13318269 176.459726 120.98477173 176.37752342 C117.80272341 188.80867317 117.80272341 188.80867317 115.23477173 201.37752342 C115.10973267 202.06846092 114.9846936 202.75939842 114.85586548 203.47127342 C114.56073596 205.10583692 114.27193864 206.74154224 113.98477173 208.37752342 C115.24289673 208.31564842 116.50102173 208.25377342 117.79727173 208.19002342 C120.34819711 208.06456808 121.57046148 208.10415447 123.71939087 209.52205467 C126.52639026 213.63804837 125.45060433 219.57643585 125.42227173 224.37752342 C125.4422522 225.57892967 125.46223267 226.78033592 125.4828186 228.01814842 C125.48185181 229.74291405 125.48185181 229.74291405 125.48086548 231.50252342 C125.48271851 232.55697655 125.48457153 233.61142967 125.48648071 234.69783592 C124.98477173 237.37752342 124.98477173 237.37752342 123.44354248 239.02074242 C120.04975504 240.89347753 116.91932288 240.79676973 113.14273071 240.76570702 C111.96402405 240.77359245 111.96402405 240.77359245 110.76150513 240.78163719 C108.16775556 240.79482599 105.57462113 240.78610413 102.98086548 240.77596092 C101.17772809 240.77798178 99.3745915 240.78089332 97.57145691 240.78465843 C93.79451711 240.78908009 90.01779028 240.78265509 86.24087524 240.7686367 C81.39613901 240.7515326 76.5519009 240.76139467 71.70718288 240.7793541 C67.98488092 240.79018577 64.26269742 240.78674865 60.54039192 240.77897072 C58.75378422 240.77696764 56.9671658 240.77943177 55.1805706 240.78640938 C52.68589583 240.79401514 50.19203243 240.78243305 47.69741821 240.76570702 C46.58690849 240.77481606 46.58690849 240.77481606 45.45396423 240.78410912 C40.48219548 240.7222483 40.48219548 240.7222483 38.0269928 239.02074242 C36.44594158 236.52797628 36.59572879 234.43004651 36.58633423 231.50252342 C36.58246704 230.35267967 36.57859985 229.20283592 36.57461548 228.01814842 C36.58621704 226.81674217 36.5978186 225.61533592 36.60977173 224.37752342 C36.59817017 223.17611717 36.5865686 221.97471092 36.57461548 220.73689842 C36.57848267 219.58705467 36.58234985 218.43721092 36.58633423 217.25252342 C36.58971802 216.1980703 36.59310181 215.14361717 36.59658813 214.05721092 C36.98477173 211.37752342 36.98477173 211.37752342 38.07217407 209.51033592 C40.99299713 207.78036158 43.6714464 208.18997671 46.98477173 208.37752342 C46.18264748 199.25676336 44.12426159 190.65007626 41.72695923 181.83846092 C41.41832947 180.70346153 41.10969971 179.56846214 40.79171753 178.39906883 C39.49189914 173.64861592 38.18050005 168.90152676 36.85635376 164.15779686 C35.88329911 160.65901207 34.92916692 157.15546755 33.97695923 153.65096092 C33.67700043 152.59750481 33.37704163 151.54404869 33.06799316 150.45866966 C30.68516377 141.62640066 29.13373075 132.1550325 32.87539673 123.48299217 C33.33236938 122.4032412 33.78934204 121.32349022 34.26016235 120.21101952 C34.83332566 118.93242114 35.40837323 117.65466662 35.98477173 116.37752342 C36.71102204 114.73395566 37.43690681 113.09022635 38.1625061 111.44637108 C40.65090098 105.84455567 43.19115533 100.26692371 45.73477173 94.69002342 C46.6192193 92.74290902 47.50333636 90.79564445 48.38711548 88.84822655 C49.9915994 85.31583688 51.59696129 81.78385596 53.20645142 78.25374413 C53.52668274 77.55127052 53.84691406 76.84879692 54.17684937 76.12503624 C54.75887637 74.86612857 55.36451308 73.61804072 55.98477173 72.37752342 C56.14210422 69.38988987 56.24338588 66.42211191 56.30117798 63.43221092 C56.32195908 62.54719902 56.34274017 61.66218712 56.364151 60.75035667 C56.42963771 57.91782601 56.48852735 55.08520117 56.54727173 52.25252342 C56.59045779 50.33454486 56.6340721 48.41657588 56.6781311 46.49861717 C56.7853182 41.79168291 56.88658812 37.08465375 56.98477173 32.37752342 C56.22722092 32.38418526 55.4696701 32.39084709 54.68916321 32.3977108 C47.5527873 32.45780174 40.41653392 32.50348733 33.27997112 32.53295994 C29.61090497 32.54862148 25.94204772 32.56986817 22.27310181 32.60384178 C18.73288225 32.63641857 15.19286374 32.65437276 11.65250587 32.66215515 C9.64329518 32.67040267 7.63416545 32.6938248 5.62507629 32.71741295 C3.79351738 32.71775284 3.79351738 32.71775284 1.92495728 32.71809959 C0.30946236 32.72809235 0.30946236 32.72809235 -1.33866882 32.73828697 C-4.01522827 32.37752342 -4.01522827 32.37752342 -5.86222839 31.02371788 C-7.59647443 28.54764978 -7.40405999 26.49586715 -7.41366577 23.50252342 C-7.41753296 22.35267967 -7.42140015 21.20283592 -7.42538452 20.01814842 C-7.41378296 18.81674217 -7.4021814 17.61533592 -7.39022827 16.37752342 C-7.40182983 15.17611717 -7.4134314 13.97471092 -7.42538452 12.73689842 C-7.42151733 11.58705467 -7.41765015 10.43721092 -7.41366577 9.25252342 C-7.41028198 8.1980703 -7.40689819 7.14361717 -7.40341187 6.05721092 C-6.74237787 1.49399764 -4.47047036 0.00307508 0 0 Z " fill="#000000" transform="translate(15.015228271484375,7.622476577758789)"/>
<path d="M0 0 C26.4 0 52.8 0 80 0 C80 43.56 80 87.12 80 132 C78.02 132.99 76.04 133.98 74 135 C73.34 136.65 72.68 138.3 72 140 C64.08 140 56.16 140 48 140 C47.98541748 138.32977783 47.97083496 136.65955566 47.95581055 134.9387207 C47.89783817 128.74188834 47.82060427 122.54541973 47.73754883 116.34887695 C47.70264989 113.66693399 47.6750113 110.98506199 47.65356445 108.30297852 C47.62002854 104.44777567 47.56771073 100.59321525 47.51171875 96.73828125 C47.50532883 95.53915604 47.4989389 94.34003082 47.49235535 93.10456848 C47.46266411 91.4233918 47.46266411 91.4233918 47.43237305 89.70825195 C47.41571846 88.23265556 47.41571846 88.23265556 47.39872742 86.72724915 C46.8407983 82.91107892 45.37748639 80.07137831 42.3125 77.6875 C37.61767132 76.29174012 33.55476848 76.3240137 29.125 78.25 C26.75872635 80.19869595 26.06203697 81.14557455 25 84 C24.79921841 86.65570245 24.6992 89.21525795 24.69140625 91.87109375 C24.66624957 93.43034233 24.6408515 94.98958704 24.61523438 96.54882812 C24.58649607 98.99551414 24.56246447 101.44213295 24.54370117 103.88891602 C24.5219985 106.25832337 24.48256267 108.62695599 24.44140625 110.99609375 C24.44129044 111.72332138 24.44117462 112.45054901 24.4410553 113.19981384 C24.3552137 117.62381559 23.7266263 120.47993086 21 124 C17.05141843 125.97429078 12.88706432 125.22336927 8.73260498 124.17724609 C4.99435572 122.33180831 2.13825078 120.60279456 0 117 C-2.28596771 108.53512214 -1.3895017 99.29819252 -1.171875 90.625 C-1.14948157 88.01330466 -1.13240566 85.40155877 -1.12042236 82.78979492 C-1.08322793 76.62998829 -0.98491102 70.4727591 -0.86422849 64.31408405 C-0.71655642 56.60962511 -0.65117204 48.90474113 -0.5859375 41.19921875 C-0.46929598 27.46414155 -0.22891138 13.73468275 0 0 Z " fill="#FEFEFE" transform="translate(88,28)"/>
<path d="M0 0 C2 2 2 2 2 4.4375 C1 7 1 7 -2.0625 8.8125 C-3.031875 9.204375 -4.00125 9.59625 -5 10 C-4.67 11.65 -4.34 13.3 -4 15 C-2.35 14.67 -0.7 14.34 1 14 C1.185625 12.80375 1.37125 11.6075 1.5625 10.375 C2.65750723 6.07154503 4.48444971 3.7389218 8.0078125 1.078125 C10.76642279 -0.41476998 12.88060931 -0.83307978 16 -0.6015625 C19.73419152 0.52161229 22.53850707 3.03082415 25 6 C25 6.66 25 7.32 25 8 C26.11375 7.95875 27.2275 7.9175 28.375 7.875 C32 8 32 8 34 10 C33.44444444 14.55555556 33.44444444 14.55555556 32 16 C29.66702567 16.04092937 27.33294775 16.04241723 25 16 C24.773125 16.5775 24.54625 17.155 24.3125 17.75 C22.5970806 20.69071898 20.87138207 22.17275686 18 24 C14.8125 24.375 14.8125 24.375 12 24 C11.34 23.34 10.68 22.68 10 22 C10 19.5625 10 19.5625 11 17 C14.0625 15.1875 14.0625 15.1875 17 14 C16.505 11.525 16.505 11.525 16 9 C14.35 9.33 12.7 9.66 11 10 C10.82984375 10.60328125 10.6596875 11.2065625 10.484375 11.828125 C8.00835073 19.99373695 8.00835073 19.99373695 4 23 C0.29397865 24.23534045 -2.09753614 24.45528745 -6 24 C-8.66575582 22.31772691 -10.95335672 20.4012289 -13 18 C-13 17.34 -13 16.68 -13 16 C-14.670625 16.061875 -14.670625 16.061875 -16.375 16.125 C-20 16 -20 16 -22 14 C-21.44444444 9.44444444 -21.44444444 9.44444444 -20 8 C-17.66702567 7.95907063 -15.33294775 7.95758277 -13 8 C-12.6596875 7.13375 -12.6596875 7.13375 -12.3125 6.25 C-9.3281858 1.13403281 -5.8743722 -0.78324963 0 0 Z " fill="#060606" transform="translate(122,52)"/>
<path d="M0 0 C3 0.125 3 0.125 4 1.125 C4.15740605 2.83063778 4.25093392 4.54227244 4.31640625 6.25390625 C4.35830078 7.28837891 4.40019531 8.32285156 4.44335938 9.38867188 C4.48267578 10.47728516 4.52199219 11.56589844 4.5625 12.6875 C4.60568359 13.77998047 4.64886719 14.87246094 4.69335938 15.99804688 C4.79982068 18.70689564 4.90183516 21.41583992 5 24.125 C6.4540625 24.0940625 6.4540625 24.0940625 7.9375 24.0625 C11 24.125 11 24.125 12 25.125 C12.42925065 28.8207434 12.37898557 30.57420764 10.2421875 33.6796875 C9.46101563 34.44539063 8.67984375 35.21109375 7.875 36 C7.10929687 36.78117187 6.34359375 37.56234375 5.5546875 38.3671875 C2.353307 40.56997225 0.81401513 40.78053385 -3 40.125 C-5.5546875 38.3671875 -5.5546875 38.3671875 -7.875 36 C-9.04675781 34.85144531 -9.04675781 34.85144531 -10.2421875 33.6796875 C-12.37898557 30.57420764 -12.42925065 28.8207434 -12 25.125 C-11 24.125 -11 24.125 -7.9375 24.0625 C-6.4834375 24.0934375 -6.4834375 24.0934375 -5 24.125 C-4.97494385 23.43349854 -4.9498877 22.74199707 -4.92407227 22.02954102 C-4.80847839 18.91532134 -4.68558758 15.80143211 -4.5625 12.6875 C-4.52318359 11.59888672 -4.48386719 10.51027344 -4.44335938 9.38867188 C-4.40146484 8.35419922 -4.35957031 7.31972656 -4.31640625 6.25390625 C-4.27974854 5.29556885 -4.24309082 4.33723145 -4.20532227 3.34985352 C-3.88838056 -0.08449815 -3.5318076 0.14715865 0 0 Z " fill="#000000" transform="translate(216,51.875)"/>
<path d="M0 0 C3 0.125 3 0.125 4 1.125 C4.15740605 2.83063778 4.25093392 4.54227244 4.31640625 6.25390625 C4.35830078 7.28837891 4.40019531 8.32285156 4.44335938 9.38867188 C4.48267578 10.47728516 4.52199219 11.56589844 4.5625 12.6875 C4.60568359 13.77998047 4.64886719 14.87246094 4.69335938 15.99804688 C4.79982068 18.70689564 4.90183516 21.41583992 5 24.125 C6.4540625 24.0940625 6.4540625 24.0940625 7.9375 24.0625 C11 24.125 11 24.125 12 25.125 C12.42925065 28.8207434 12.37898557 30.57420764 10.2421875 33.6796875 C9.46101563 34.44539063 8.67984375 35.21109375 7.875 36 C7.10929687 36.78117187 6.34359375 37.56234375 5.5546875 38.3671875 C2.353307 40.56997225 0.81401513 40.78053385 -3 40.125 C-5.5546875 38.3671875 -5.5546875 38.3671875 -7.875 36 C-9.04675781 34.85144531 -9.04675781 34.85144531 -10.2421875 33.6796875 C-12.37898557 30.57420764 -12.42925065 28.8207434 -12 25.125 C-11 24.125 -11 24.125 -7.9375 24.0625 C-6.4834375 24.0934375 -6.4834375 24.0934375 -5 24.125 C-4.97494385 23.43349854 -4.9498877 22.74199707 -4.92407227 22.02954102 C-4.80847839 18.91532134 -4.68558758 15.80143211 -4.5625 12.6875 C-4.52318359 11.59888672 -4.48386719 10.51027344 -4.44335938 9.38867188 C-4.40146484 8.35419922 -4.35957031 7.31972656 -4.31640625 6.25390625 C-4.27974854 5.29556885 -4.24309082 4.33723145 -4.20532227 3.34985352 C-3.88838056 -0.08449815 -3.5318076 0.14715865 0 0 Z " fill="#000000" transform="translate(40,51.875)"/>
<path d="M0 0 C1.31223496 3.93670488 0.24296256 6.12488144 -1 10 C-3.375 10.625 -3.375 10.625 -6 11 C-6.66 10.34 -7.32 9.68 -8 9 C-8 6.5625 -8 6.5625 -7 4 C-4 2.25 -4 2.25 -1 1 C-0.67 0.67 -0.34 0.34 0 0 Z " fill="#F3F3F3" transform="translate(124,57)"/>
<path d="M0 0 C1.67542976 0.28604898 3.34385343 0.61781233 5 1 C5.625 3.375 5.625 3.375 6 6 C3.53721199 8.46278801 1.29323018 8.99771255 -2 10 C-3.26066301 6.21801096 -2.42292658 4.63636792 -1 1 C-0.67 0.67 -0.34 0.34 0 0 Z " fill="#F1F1F1" transform="translate(134,60)"/>
</svg>
