<?xml version="1.0" standalone="no"?>
<!DOCTYPE svg PUBLIC "-//W3C//DTD SVG 20010904//EN"
 "http://www.w3.org/TR/2001/REC-SVG-20010904/DTD/svg10.dtd">
<svg version="1.0" xmlns="http://www.w3.org/2000/svg"
 width="100.000000pt" height="100.000000pt" viewBox="0 0 100.000000 100.000000"
 preserveAspectRatio="xMidYMid meet">

<g transform="translate(0.000000,100.000000) scale(0.100000,-0.100000)" stroke="none">
<path d="M455 796 c-43 -19 -52 -31 -174 -243 -96 -166 -111 -198 -111 -237 0
-55 35 -101 88 -116 48 -13 436 -13 484 0 53 15 88 61 88 116 0 39 -15 71
-111 237 -124 214 -131 224 -176 243 -39 17 -50 17 -88 0z m85 -201 c9 -11 11
-33 6 -72 -7 -62 -19 -83 -46 -83 -27 0 -39 21 -46 83 -8 66 4 87 46 87 15 0
33 -7 40 -15z m0 -200 c6 -8 9 -23 5 -34 -12 -39 -78 -39 -90 0 -9 27 11 49
45 49 15 0 33 -7 40 -15z"/>
</g>
</svg>
