<?xml version="1.0" standalone="no"?>
<!DOCTYPE svg PUBLIC "-//W3C//DTD SVG 20010904//EN"
 "http://www.w3.org/TR/2001/REC-SVG-20010904/DTD/svg10.dtd">
<svg version="1.0" xmlns="http://www.w3.org/2000/svg"
 width="100.000000pt" height="100.000000pt" viewBox="0 0 100.000000 100.000000"
 preserveAspectRatio="xMidYMid meet">

<g transform="translate(0.000000,100.000000) scale(0.100000,-0.100000)" stroke="none">
<path d="M437 910 c-55 -14 -97 -37 -142 -79 -26 -24 -58 -42 -90 -50 -202
-50 -271 -303 -124 -450 30 -30 98 -71 117 -71 5 0 14 18 19 39 10 39 10 39
-29 57 -104 47 -135 185 -63 279 32 43 70 63 132 72 39 5 54 13 82 45 18 21
50 48 72 58 45 23 125 26 172 7 61 -26 127 -121 127 -184 0 -9 17 -13 50 -13
81 0 136 -41 154 -113 14 -58 -31 -141 -86 -160 -14 -5 -15 -11 -5 -44 6 -21
12 -39 13 -41 5 -7 80 38 101 60 118 127 55 337 -114 380 -35 8 -46 17 -58 44
-21 51 -90 119 -143 142 -58 25 -134 34 -185 22z"/>
<path d="M449 446 c-56 -20 -96 -53 -126 -104 -37 -63 -39 -158 -5 -216 l23
-39 -22 -23 -22 -24 81 0 82 0 0 80 c0 44 -3 80 -7 80 -4 0 -17 -10 -30 -22
-20 -19 -25 -20 -33 -8 -5 8 -10 35 -10 60 0 60 30 107 80 128 37 16 40 20 40
60 0 47 0 46 -51 28z"/>
<path d="M587 413 c-10 -9 -8 -153 1 -153 5 0 17 9 27 20 25 28 32 25 45 -14
22 -68 -25 -155 -92 -171 -25 -6 -28 -11 -28 -51 0 -52 5 -53 75 -20 60 28 87
56 114 116 27 58 26 119 0 181 -20 46 -20 51 -5 68 9 9 16 21 16 24 0 9 -145
9 -153 0z"/>
</g>
</svg>
