<?xml version="1.0" standalone="no"?>
<!DOCTYPE svg PUBLIC "-//W3C//DTD SVG 20010904//EN"
 "http://www.w3.org/TR/2001/REC-SVG-20010904/DTD/svg10.dtd">
<svg version="1.0" xmlns="http://www.w3.org/2000/svg"
 width="100.000000pt" height="100.000000pt" viewBox="0 0 100.000000 100.000000"
 preserveAspectRatio="xMidYMid meet">

<g transform="translate(0.000000,100.000000) scale(0.100000,-0.100000)" stroke="none">
<path d="M782 967 l-22 -23 40 -39 40 -39 -40 -41 -41 -41 21 -19 c20 -18 21
-18 60 20 l40 39 40 -39 40 -39 22 22 22 22 -39 40 -39 40 39 40 39 40 -20 20
c-20 20 -20 20 -59 -20 l-39 -40 -41 40 -41 40 -22 -23z"/>
<path d="M258 803 c-20 -21 -50 -65 -65 -98 -24 -51 -28 -72 -28 -145 1 -89
20 -150 65 -207 l21 -27 -41 -41 c-38 -39 -40 -44 -40 -103 l0 -62 -30 0 c-27
0 -30 -3 -30 -30 l0 -30 258 2 257 3 3 27 c3 24 -1 27 -30 30 -32 3 -33 5 -36
49 l-3 46 54 6 c59 6 125 34 172 71 l30 25 -113 113 -113 114 24 22 c13 12 33
22 46 22 56 0 89 53 66 107 -33 77 -145 46 -145 -40 0 -17 -8 -39 -17 -49 -16
-18 -22 -14 -143 107 l-126 125 -36 -37z m270 -286 l194 -194 -39 -19 c-57
-28 -184 -26 -240 4 -54 28 -104 78 -128 128 -27 55 -32 172 -10 230 9 24 20
44 23 44 4 0 94 -87 200 -193z m-140 -277 c29 -11 66 -20 82 -20 29 0 30 -1
30 -50 l0 -51 -107 3 -108 3 -3 44 c-3 34 2 49 19 67 27 29 22 29 87 4z"/>
</g>
</svg>
