<?xml version="1.0" standalone="no"?>
<!DOCTYPE svg PUBLIC "-//W3C//DTD SVG 20010904//EN"
 "http://www.w3.org/TR/2001/REC-SVG-20010904/DTD/svg10.dtd">
<svg version="1.0" xmlns="http://www.w3.org/2000/svg"
 width="100.000000pt" height="100.000000pt" viewBox="0 0 100.000000 100.000000"
 preserveAspectRatio="xMidYMid meet">

<g transform="translate(0.000000,100.000000) scale(0.100000,-0.100000)" stroke="none">
<path d="M220 635 l0 -275 30 0 30 0 0 240 0 240 280 0 280 0 0 -318 c0 -271
-2 -321 -16 -340 -36 -51 -88 -10 -86 68 l1 50 -318 0 -318 0 -6 -28 c-7 -35
6 -94 28 -128 33 -50 60 -54 377 -54 328 0 344 3 383 70 19 33 20 51 20 390
l0 355 -342 3 -343 2 0 -275z"/>
<path d="M360 750 c-11 -11 -20 -23 -20 -28 0 -17 32 -52 49 -52 20 0 51 30
51 48 0 15 -36 52 -50 52 -5 0 -19 -9 -30 -20z"/>
<path d="M500 720 l0 -30 140 0 140 0 0 30 0 30 -140 0 -140 0 0 -30z"/>
<path d="M350 599 c-9 -16 -8 -26 5 -45 19 -29 46 -31 70 -4 15 17 16 24 7 45
-15 32 -66 35 -82 4z"/>
<path d="M500 580 l0 -30 140 0 140 0 0 30 0 30 -140 0 -140 0 0 -30z"/>
<path d="M350 459 c-9 -16 -8 -26 5 -45 19 -29 46 -31 70 -4 15 17 16 24 7 45
-15 32 -66 35 -82 4z"/>
<path d="M500 440 l0 -30 140 0 140 0 0 30 0 30 -140 0 -140 0 0 -30z"/>
</g>
</svg>
