<?xml version="1.0" standalone="no"?>
<!DOCTYPE svg PUBLIC "-//W3C//DTD SVG 20010904//EN"
 "http://www.w3.org/TR/2001/REC-SVG-20010904/DTD/svg10.dtd">
<svg version="1.0" xmlns="http://www.w3.org/2000/svg"
 width="100.000000pt" height="100.000000pt" viewBox="0 0 100.000000 100.000000"
 preserveAspectRatio="xMidYMid meet">

<g transform="translate(0.000000,100.000000) scale(0.100000,-0.100000)" stroke="none">
<path d="M400 875 c-107 -30 -191 -102 -239 -205 -22 -47 -26 -69 -26 -150 0
-82 4 -103 27 -152 14 -31 47 -77 71 -102 182 -181 479 -132 593 100 26 53 29
69 29 154 0 88 -3 101 -33 162 -77 156 -257 239 -422 193z m169 -111 c111 -33
188 -144 179 -259 -12 -141 -114 -235 -256 -235 -137 0 -238 95 -250 235 -9
112 62 219 170 256 66 23 90 23 157 3z"/>
<path d="M450 720 c-55 -10 -100 -38 -100 -61 0 -29 20 -32 65 -9 69 35 138
20 189 -41 24 -28 26 -35 12 -37 -9 -2 -16 -9 -16 -15 1 -14 56 -77 67 -77 10
0 53 66 53 80 0 5 -7 10 -15 10 -8 0 -23 17 -34 38 -43 83 -133 129 -221 112z"/>
<path d="M302 537 c-36 -37 -41 -57 -14 -57 10 0 27 -18 41 -46 54 -100 168
-140 269 -94 31 14 43 25 40 37 -4 19 -5 19 -111 7 -58 -7 -98 8 -132 48 -29
34 -31 48 -10 48 8 0 15 5 15 11 0 11 -52 79 -61 79 -3 0 -19 -15 -37 -33z"/>
</g>
</svg>
