<?xml version="1.0" standalone="no"?>
<!DOCTYPE svg PUBLIC "-//W3C//DTD SVG 20010904//EN"
 "http://www.w3.org/TR/2001/REC-SVG-20010904/DTD/svg10.dtd">
<svg version="1.0" xmlns="http://www.w3.org/2000/svg"
 width="100.000000pt" height="100.000000pt" viewBox="0 0 100.000000 100.000000"
 preserveAspectRatio="xMidYMid meet">

<g transform="translate(0.000000,100.000000) scale(0.100000,-0.100000)" stroke="none">
<path d="M361 769 c-107 -27 -212 -90 -264 -155 l-20 -25 39 -40 c21 -21 41
-39 45 -39 4 0 29 19 56 42 160 139 406 139 566 0 27 -23 52 -42 56 -42 4 0
24 18 45 39 l39 40 -21 26 c-58 73 -177 137 -299 161 -98 18 -152 17 -242 -7z"/>
<path d="M420 570 c-61 -13 -140 -53 -175 -90 l-29 -30 30 -31 c49 -52 58 -53
109 -15 53 41 91 50 172 42 74 -8 92 -8 182 1 l74 8 -40 36 c-73 66 -217 101
-323 79z"/>
<path d="M640 412 c-49 -24 -80 -75 -80 -131 0 -158 208 -210 281 -71 25 46
24 94 -2 140 -40 71 -127 99 -199 62z m156 -66 c7 -17 -92 -156 -111 -156 -16
0 -75 69 -75 87 0 20 25 16 45 -7 10 -11 22 -20 26 -20 5 0 27 25 49 55 42 56
57 66 66 41z"/>
<path d="M455 373 c-28 -7 -85 -52 -85 -66 0 -19 113 -127 132 -127 26 0 33
19 34 90 1 36 3 74 5 85 3 17 -2 20 -31 22 -19 0 -44 -1 -55 -4z"/>
</g>
</svg>
