<?xml version="1.0" standalone="no"?>
<!DOCTYPE svg PUBLIC "-//W3C//DTD SVG 20010904//EN"
 "http://www.w3.org/TR/2001/REC-SVG-20010904/DTD/svg10.dtd">
<svg version="1.0" xmlns="http://www.w3.org/2000/svg"
 width="100.000000pt" height="100.000000pt" viewBox="0 0 100.000000 100.000000"
 preserveAspectRatio="xMidYMid meet">

<g transform="translate(0.000000,100.000000) scale(0.100000,-0.100000)" stroke="none">
<path d="M364 785 c-79 -21 -154 -58 -211 -103 -75 -60 -80 -73 -42 -117 17
-19 37 -35 45 -35 8 0 40 20 71 44 78 60 150 87 249 93 111 8 199 -19 289 -87
36 -28 72 -50 79 -50 8 0 28 16 45 35 38 43 33 57 -39 114 -133 105 -330 148
-486 106z"/>
<path d="M405 580 c-73 -18 -166 -73 -179 -105 -6 -17 62 -85 85 -85 9 0 22 7
30 16 38 46 146 74 216 55 36 -10 47 -9 68 5 14 9 51 19 82 23 l56 6 -40 28
c-84 58 -218 82 -318 57z"/>
<path d="M661 422 c-124 -63 -93 -241 45 -258 109 -14 191 111 134 204 -41 66
-113 88 -179 54z m35 -73 l22 -21 31 23 c40 29 52 17 18 -19 l-27 -28 26 -26
c38 -37 21 -58 -17 -22 l-29 28 -29 -28 c-37 -35 -50 -18 -16 22 l24 29 -24
23 c-14 13 -25 27 -25 32 0 15 23 8 46 -13z"/>
<path d="M420 368 c-62 -43 -62 -52 2 -114 46 -44 63 -55 85 -52 l27 3 1 93 0
92 -41 0 c-26 0 -53 -8 -74 -22z"/>
</g>
</svg>
